<?xml version="1.0" encoding="utf-8"?>
<!-- Generator: Adobe Illustrator 24.0.1, SVG Export Plug-In . SVG Version: 6.00 Build 0)  -->
<svg version="1.1" id="Layer_1" xmlns="http://www.w3.org/2000/svg" xmlns:xlink="http://www.w3.org/1999/xlink" x="0px" y="0px"
	 viewBox="0 0 396 501" style="enable-background:new 0 0 396 501;" xml:space="preserve">
<style type="text/css">
	.st0{fill:#FFFFFF;}
	.st1{fill:none;stroke:#000000;stroke-width:9;stroke-miterlimit:10;}
	.st2{font-family:'TrebuchetMS';}
	.st3{font-size:109.9041px;}
</style>
<g id="_x32_A78VW.tif_1_">
	<g>
		<path d="M-0.46,250.41c0-64.68-0.02-129.37,0.01-194.05C-0.44,28.39,15.92,7.1,41.87,1.47c4.35-0.95,8.92-1.24,13.39-1.25
			C119.43,0.15,183.6,0.2,247.77,0.13c5.33-0.01,9.46,1.65,13.31,5.48c42.98,42.83,86.04,85.57,129.21,128.2
			c4.28,4.23,6.03,8.96,6.03,14.68c0,99.36,0.07,198.72-0.05,298.07c-0.04,30.87-23.33,54.16-54.13,54.2
			c-96,0.11-192.01,0.1-288.01,0.02c-31.37-0.03-54.5-23.32-54.54-54.82c-0.09-65.18-0.03-130.37-0.03-195.55
			C-0.44,250.41-0.45,250.41-0.46,250.41z M230.99,31.11c-2.08,0-3.54,0-5,0C169.49,31.1,113,31.09,56.5,31.09
			c-16.64,0-24.93,8.23-24.93,24.79c0,129.35,0.15,258.71-0.16,388.06c-0.04,15.71,10.29,25.1,25.02,25
			c51.99-0.38,103.99-0.15,155.99-0.15c42.83,0,85.66,0.02,128.49-0.01c13.87-0.01,22.39-8.19,22.39-21.28
			c-0.03-92.68-0.05-185.36-0.08-278.04c0-1.78,0-3.56,0-5.9c-2.7,0-4.82,0-6.94,0c-23.67,0-47.33,0.12-71-0.04
			c-19.38-0.13-34.71-8.27-45.6-24.36c-5.95-8.79-8.69-18.65-8.7-29.25C230.98,83.91,230.99,57.91,230.99,31.11z M340.45,132.64
			c0.31-0.56,0.62-1.12,0.92-1.68c-25.99-25-51.98-50-77.32-74.37c0,16.68-0.05,34.82,0.02,52.95c0.05,14.18,8.84,22.97,23.13,23.07
			c14.48,0.1,28.95,0.02,43.43,0.03C333.9,132.64,337.18,132.64,340.45,132.64z"/>
	</g>
</g>
<g id="_x32_A78VW.tif">
	<g>
		<path d="M-0.46,250.41c0-64.68-0.02-129.37,0.01-194.05C-0.44,28.39,15.92,7.1,41.87,1.47c4.35-0.95,8.92-1.24,13.39-1.25
			C119.43,0.15,183.6,0.2,247.77,0.13c5.33-0.01,9.46,1.65,13.31,5.48c42.98,42.83,86.04,85.57,129.21,128.2
			c4.28,4.23,6.03,8.96,6.03,14.68c0,99.36,0.07,198.72-0.05,298.07c-0.04,30.87-23.33,54.16-54.13,54.2
			c-96,0.11-192.01,0.1-288.01,0.02c-31.37-0.03-54.5-23.32-54.54-54.82c-0.09-65.18-0.03-130.37-0.03-195.55
			C-0.44,250.41-0.45,250.41-0.46,250.41z"/>
		<path class="st0" d="M230.99,31.11c-2.08,0-3.54,0-5,0C169.49,31.1,113,31.09,56.5,31.09c-16.64,0-24.93,8.23-24.93,24.79
			c0,129.35,0.15,258.71-0.16,388.06c-0.04,15.71,10.29,25.1,25.02,25c51.99-0.38,103.99-0.15,155.99-0.15
			c42.83,0,85.66,0.02,128.49-0.01c13.87-0.01,22.39-8.19,22.39-21.28c-0.03-92.68-0.05-185.36-0.08-278.04c0-1.78,0-3.56,0-5.9
			c-2.7,0-4.82,0-6.94,0c-23.67,0-47.33,0.12-71-0.04c-19.38-0.13-34.71-8.27-45.6-24.36c-5.95-8.79-8.69-18.65-8.7-29.25
			C230.98,83.91,230.99,57.91,230.99,31.11z"/>
		<path class="st0" d="M340.45,132.64c0.31-0.56,0.62-1.12,0.92-1.68c-25.99-25-51.98-50-77.32-74.37c0,16.68-0.05,34.82,0.02,52.95
			c0.05,14.18,8.84,22.97,23.13,23.07c14.48,0.1,28.95,0.02,43.43,0.03C333.9,132.64,337.18,132.64,340.45,132.64z"/>
	</g>
</g>
<g>
	<g>
		<rect x="159.9" y="208.02" class="st0" width="145.6" height="58.64"/>
		<path d="M301,212.52v49.64H164.4v-49.64H301 M310,203.52H155.4v67.64H310V203.52L310,203.52z"/>
	</g>
	<g>
		<polyline class="st1" points="63.39,170.04 83.15,170.04 84.21,237.77 155.4,237.77 		"/>
	</g>
</g>
<text transform="matrix(1 0 0 1 109.3951 428.9297)" class="st2 st3">PLN</text>
</svg>
