<?xml version="1.0" encoding="utf-8"?>
<!-- Generator: Adobe Illustrator 24.0.1, SVG Export Plug-In . SVG Version: 6.00 Build 0)  -->
<svg version="1.1" id="Layer_1" xmlns="http://www.w3.org/2000/svg" xmlns:xlink="http://www.w3.org/1999/xlink" x="0px" y="0px"
	 viewBox="0 0 396 501" style="enable-background:new 0 0 396 501;" xml:space="preserve">
<style type="text/css">
	.st0{fill:#FFFFFF;}
	.st1{fill:none;stroke:#000000;stroke-width:9;stroke-miterlimit:10;}
	.st2{font-family:'TrebuchetMS';}
	.st3{font-size:109.9041px;}
</style>
<g id="_x32_A78VW.tif_1_">
	<g>
		<path d="M-0.4,250.42c0-64.68-0.02-129.37,0.01-194.05C-0.38,28.4,15.98,7.11,41.93,1.48c4.35-0.95,8.92-1.24,13.39-1.25
			c64.17-0.07,128.34-0.02,192.51-0.09c5.33-0.01,9.46,1.65,13.31,5.48c42.98,42.83,86.04,85.57,129.21,128.2
			c4.28,4.23,6.03,8.96,6.03,14.68c0,99.36,0.07,198.72-0.05,298.07c-0.04,30.87-23.33,54.16-54.13,54.2
			c-96,0.11-192.01,0.1-288.01,0.02c-31.37-0.03-54.5-23.32-54.54-54.82c-0.09-65.18-0.03-130.37-0.03-195.55
			C-0.38,250.42-0.39,250.42-0.4,250.42z M231.05,31.12c-2.08,0-3.54,0-5,0c-56.5-0.01-112.99-0.02-169.49-0.02
			c-16.64,0-24.93,8.23-24.93,24.79c0,129.35,0.15,258.71-0.16,388.06c-0.04,15.71,10.29,25.1,25.02,25
			c51.99-0.38,103.99-0.15,155.99-0.15c42.83,0,85.66,0.02,128.49-0.01c13.87-0.01,22.39-8.19,22.39-21.28
			c-0.03-92.68-0.05-185.36-0.08-278.04c0-1.78,0-3.56,0-5.9c-2.7,0-4.82,0-6.94,0c-23.67,0-47.33,0.12-71-0.04
			c-19.38-0.13-34.71-8.27-45.6-24.36c-5.95-8.79-8.69-18.65-8.7-29.25C231.04,83.92,231.05,57.92,231.05,31.12z M340.51,132.65
			c0.31-0.56,0.62-1.12,0.92-1.68c-25.99-25-51.98-50-77.32-74.37c0,16.68-0.05,34.82,0.02,52.95c0.05,14.18,8.84,22.97,23.13,23.07
			c14.48,0.1,28.95,0.02,43.43,0.03C333.96,132.65,337.24,132.65,340.51,132.65z"/>
	</g>
</g>
<g id="_x32_A78VW.tif">
	<g>
		<path d="M-0.4,250.42c0-64.68-0.02-129.37,0.01-194.05C-0.38,28.4,15.98,7.11,41.93,1.48c4.35-0.95,8.92-1.24,13.39-1.25
			c64.17-0.07,128.34-0.02,192.51-0.09c5.33-0.01,9.46,1.65,13.31,5.48c42.98,42.83,86.04,85.57,129.21,128.2
			c4.28,4.23,6.03,8.96,6.03,14.68c0,99.36,0.07,198.72-0.05,298.07c-0.04,30.87-23.33,54.16-54.13,54.2
			c-96,0.11-192.01,0.1-288.01,0.02c-31.37-0.03-54.5-23.32-54.54-54.82c-0.09-65.18-0.03-130.37-0.03-195.55
			C-0.38,250.42-0.39,250.42-0.4,250.42z"/>
		<path class="st0" d="M231.05,31.12c-2.08,0-3.54,0-5,0c-56.5-0.01-112.99-0.02-169.49-0.02c-16.64,0-24.93,8.23-24.93,24.79
			c0,129.35,0.15,258.71-0.16,388.06c-0.04,15.71,10.29,25.1,25.02,25c51.99-0.38,103.99-0.15,155.99-0.15
			c42.83,0,85.66,0.02,128.49-0.01c13.87-0.01,22.39-8.19,22.39-21.28c-0.03-92.68-0.05-185.36-0.08-278.04c0-1.78,0-3.56,0-5.9
			c-2.7,0-4.82,0-6.94,0c-23.67,0-47.33,0.12-71-0.04c-19.38-0.13-34.71-8.27-45.6-24.36c-5.95-8.79-8.69-18.65-8.7-29.25
			C231.04,83.92,231.05,57.92,231.05,31.12z"/>
		<path class="st0" d="M340.51,132.65c0.31-0.56,0.62-1.12,0.92-1.68c-25.99-25-51.98-50-77.32-74.37c0,16.68-0.05,34.82,0.02,52.95
			c0.05,14.18,8.84,22.97,23.13,23.07c14.48,0.1,28.95,0.02,43.43,0.03C333.96,132.65,337.24,132.65,340.51,132.65z"/>
	</g>
</g>
<g>
	<g>
		<rect x="101.5" y="220.71" class="st0" width="51.57" height="17.5"/>
		<path d="M148.57,225.21v8.5H106v-8.5H148.57 M157.57,216.21H97v26.5h60.57V216.21L157.57,216.21z"/>
	</g>
	<g>
		<rect x="203.71" y="171.5" class="st0" width="51.57" height="17.5"/>
		<path d="M250.77,176v8.5H208.2V176H250.77 M259.77,167H199.2v26.5h60.57V167L259.77,167z"/>
	</g>
	<g>
		<rect x="227.93" y="268.41" class="st0" width="51.57" height="17.5"/>
		<path d="M275,272.91v8.5h-42.57v-8.5H275 M284,263.91h-60.57v26.5H284V263.91L284,263.91z"/>
	</g>
	<g>
		<polyline class="st1" points="157.57,228.7 179.14,228.7 179.14,180.25 199.59,180.25 		"/>
	</g>
	<g>
		<polyline class="st1" points="157.39,228.7 171.57,228.7 172.33,277.33 223.43,277.33 		"/>
	</g>
	<g>
		<rect x="212.79" y="219.2" class="st0" width="51.57" height="17.5"/>
		<path d="M259.86,223.7v8.5h-42.57v-8.5H259.86 M268.86,214.7h-60.57v26.5h60.57V214.7L268.86,214.7z"/>
	</g>
	<g>
		<line class="st1" x1="157.27" y1="228.4" x2="208.37" y2="228.4"/>
	</g>
</g>
<text transform="matrix(1 0 0 1 106 428.9297)" class="st2 st3">PLG</text>
</svg>
