<?xml version="1.0" encoding="utf-8"?>
<!-- Generator: Adobe Illustrator 24.0.1, SVG Export Plug-In . SVG Version: 6.00 Build 0)  -->
<svg version="1.1" id="Layer_1" xmlns="http://www.w3.org/2000/svg" xmlns:xlink="http://www.w3.org/1999/xlink" x="0px" y="0px"
	 viewBox="0 0 236 308" style="enable-background:new 0 0 236 308;" xml:space="preserve">
<g>
	<path d="M39.84,243.36V130.28c0-19.93,5.41-35.23,16.25-45.88c10.83-10.66,27.08-15.99,48.74-15.99h22.88
		c10.05,0,19.37,1.52,27.95,4.55c8.58,3.03,15.99,7.41,22.23,13.13s11.09,12.78,14.56,21.19c3.46,8.41,5.2,17.98,5.2,28.73
		c0,19.41-5.89,34.83-17.68,46.27c-11.79,11.44-29.29,17.16-52.51,17.16c-5.55,0-11.05-0.3-16.51-0.91
		c-5.46-0.61-10.44-1.52-14.95-2.73v-39.25c4.5,1.21,9.1,2.12,13.78,2.73c4.68,0.61,9.01,0.91,13,0.91
		c10.05,0,17.81-1.86,23.27-5.59c5.46-3.72,8.19-10.35,8.19-19.89c0-9.36-2.47-16.12-7.41-20.28c-4.94-4.16-11.31-6.24-19.11-6.24
		h-21.84c-15.08,0-22.62,7.37-22.62,22.1v113.08H39.84z"/>
</g>
</svg>
