<?xml version="1.0" encoding="utf-8"?>
<!-- Generator: Adobe Illustrator 24.0.1, SVG Export Plug-In . SVG Version: 6.00 Build 0)  -->
<svg version="1.1" id="Layer_1" xmlns="http://www.w3.org/2000/svg" xmlns:xlink="http://www.w3.org/1999/xlink" x="0px" y="0px"
	 viewBox="0 0 976 352" style="enable-background:new 0 0 976 352;" xml:space="preserve">
<g>
	<path d="M39.84,287.36V174.28c0-19.93,5.41-35.23,16.25-45.88c10.83-10.66,27.08-15.99,48.74-15.99h22.88
		c10.05,0,19.37,1.52,27.95,4.55c8.58,3.03,15.99,7.41,22.23,13.13s11.09,12.78,14.56,21.19c3.46,8.41,5.2,17.98,5.2,28.73
		c0,19.41-5.89,34.83-17.68,46.27c-11.79,11.44-29.29,17.16-52.51,17.16c-5.55,0-11.05-0.3-16.51-0.91
		c-5.46-0.61-10.44-1.52-14.95-2.73v-39.25c4.5,1.21,9.1,2.12,13.78,2.73c4.68,0.61,9.01,0.91,13,0.91
		c10.05,0,17.81-1.86,23.27-5.59c5.46-3.72,8.19-10.35,8.19-19.89c0-9.36-2.47-16.12-7.41-20.28c-4.94-4.16-11.31-6.24-19.11-6.24
		h-21.84c-15.08,0-22.62,7.37-22.62,22.1v113.08H39.84z"/>
	<path d="M217.65,242.13V59.9h43.41v182.23H217.65z"/>
	<path d="M324.49,242.13c-13.69,0-23.92-3.55-30.68-10.66c-6.76-7.1-10.14-16.29-10.14-27.56c0-11.44,3.38-20.71,10.14-27.82
		c6.76-7.1,16.98-10.66,30.68-10.66h48.35v25.22h-38.47c-6.41,0-9.62,3.03-9.62,9.1c0,6.07,3.03,9.1,9.1,9.1h51.73v-37.43
		c0-14.73-7.54-22.1-22.62-22.1h-72.27v-36.91h72.79c21.66,0,37.87,5.33,48.61,15.99c10.74,10.66,16.12,25.96,16.12,45.88v67.85
		H324.49z"/>
	<path d="M448.49,242.13v-35.62H540c6.06,0,9.1-2.77,9.1-8.32c0-5.37-3.03-8.06-9.1-8.06h-50.95c-6.59,0-12.48-1-17.68-2.99
		c-5.2-1.99-9.62-4.72-13.26-8.19c-3.64-3.46-6.41-7.58-8.32-12.35c-1.91-4.76-2.86-9.92-2.86-15.47c0-5.89,1.04-11.22,3.12-15.99
		c2.08-4.76,5.02-8.84,8.84-12.22c3.81-3.38,8.23-5.98,13.26-7.8c5.02-1.82,10.57-2.73,16.64-2.73h95.41v35.61h-87.35
		c-5.89,0-8.84,2.69-8.84,8.06c0,5.37,2.94,8.06,8.84,8.06h51.99c13.34,0,23.66,3.64,30.94,10.92c7.28,7.28,10.92,16.55,10.92,27.82
		c0,6.07-1.04,11.48-3.12,16.25c-2.08,4.77-4.98,8.88-8.71,12.35c-3.73,3.47-8.15,6.11-13.26,7.93c-5.11,1.82-10.7,2.73-16.77,2.73
		H448.49z"/>
	<path d="M653.09,242.13c-15.77,0-27.6-4.11-35.49-12.35c-7.89-8.23-11.83-19.97-11.83-35.23V75.49h43.15v36.92h51.99v35.88h-51.99
		v42.89c0,10.23,5.11,15.34,15.34,15.34h35.35v35.62H653.09z"/>
	<path d="M742.25,99.67c-5.72,0-10.44-1.69-14.17-5.07c-3.73-3.38-5.59-8.01-5.59-13.91c0-5.54,1.86-10.01,5.59-13.39
		c3.73-3.38,8.45-5.07,14.17-5.07h5.98c5.72,0,10.4,1.69,14.04,5.07c3.64,3.38,5.46,7.84,5.46,13.39c0,5.89-1.82,10.53-5.46,13.91
		c-3.64,3.38-8.32,5.07-14.04,5.07H742.25z M723.27,242.13V112.41h43.41v129.72H723.27z"/>
	<path d="M856.89,242.13c-10.05,0-19.33-1.56-27.82-4.68c-8.49-3.12-15.86-7.54-22.1-13.26c-6.24-5.72-11.09-12.56-14.56-20.54
		c-3.47-7.97-5.2-16.81-5.2-26.52c0-9.53,1.73-18.28,5.2-26.26c3.46-7.97,8.32-14.82,14.56-20.54c6.24-5.72,13.6-10.14,22.1-13.26
		c8.49-3.12,17.76-4.68,27.82-4.68h58.49v39.51h-58.75c-7.8,0-14.13,2.3-18.98,6.89c-4.85,4.59-7.28,10.7-7.28,18.33
		c0,7.63,2.42,13.78,7.28,18.46c4.85,4.68,11.18,7.02,18.98,7.02h58.75v39.51H856.89z"/>
</g>
</svg>
